#N canvas 1926 1159 1908 935 12;
#X obj 290 174 oscparse;
#X msg 290 117 listen 8123;
#X obj 290 146 netreceive -u -b;
#X obj 202 372 print;
#X obj 290 228 route test;
#X obj 290 253 route one;
#X obj 290 198 route list;
#X obj 291 334 line;
#X obj 294 362 hsl 128 15 -1 1 0 0 empty empty empty -2 -8 0 10 -262144
-1 -1 0 1;
#X obj 291 281 f;
#X obj 291 306 pack 0 1000;
#X obj 290 90 loadbang;
#X connect 0 0 6 0;
#X connect 1 0 2 0;
#X connect 2 0 0 0;
#X connect 4 0 5 0;
#X connect 5 0 9 0;
#X connect 6 0 4 0;
#X connect 7 0 8 0;
#X connect 9 0 10 0;
#X connect 10 0 7 0;
#X connect 10 0 3 0;
#X connect 11 0 1 0;
