#N canvas 960 22 956 1000 12;
#X obj 72 39 netreceive -u -b;
#X obj 71 87 oscparse;
#X obj 71 111 list trim;
#X obj 94 247 f;
#X msg 72 7 listen 9000;
#X obj 45 164 sel 1;
#X obj 110 172 route string float;
#X obj 160 759 netsend -u -b;
#X obj 78 410 oscformat -f f time;
#X obj 126 349 oscformat -f f play;
#X msg 165 726 connect 127.0.0.1 8777;
#X obj 151 666 list prepend send;
#X obj 151 690 list trim;
#X floatatom 75 371 5 0 0 0 - - - 0;
#X obj 250 412 oscformat -f f stop;
#X obj 59 294 t b f;
#X obj 252 380 sel 0;
#X obj 591 85 bng 15 250 50 0 empty empty empty 17 7 0 10 #fcfcfc #000000
#000000;
#X text 662 97 <-- start;
#X obj 73 63 spigot;
#X obj 630 42 tgl 15 0 empty empty empty 17 7 0 10 #fcfcfc #000000
#000000 0 1;
#X text 652 43 <-- disconnect;
#X obj 71 135 route play time lastmarker;
#X obj 498 301 route name;
#X obj 498 325 route ana dai norn nekro winter lull;
#X msg 499 360 symbol _SWS_PROJTAB2;
#X msg 525 397 symbol _SWS_FIRSTPROJTAB;
#X obj 556 525 oscformat -f s action;
#X msg 673 361 symbol _SWS_PROJTAB3;
#X msg 719 393 symbol _SWS_PROJTAB4;
#X msg 713 422 symbol _SWS_PROJTAB5;
#X msg 706 447 symbol _SWS_PROJTAB6;
#X obj 283 182 t b;
#X text 401 133 trigger time on each marker;
#X obj 283 157 route time;
#X obj 186 247 f;
#X connect 0 0 19 0;
#X connect 1 0 2 0;
#X connect 2 0 22 0;
#X connect 3 0 15 0;
#X connect 4 0 0 0;
#X connect 5 0 3 0;
#X connect 5 1 16 0;
#X connect 6 1 3 1;
#X connect 6 1 35 1;
#X connect 8 0 11 0;
#X connect 9 0 11 0;
#X connect 10 0 7 0;
#X connect 11 0 12 0;
#X connect 12 0 7 0;
#X connect 13 0 8 0;
#X connect 14 0 11 0;
#X connect 15 0 9 0;
#X connect 15 1 13 0;
#X connect 16 0 14 0;
#X connect 17 0 4 0;
#X connect 17 0 10 0;
#X connect 19 0 1 0;
#X connect 20 0 19 1;
#X connect 22 0 5 0;
#X connect 22 1 6 0;
#X connect 22 2 23 0;
#X connect 22 2 34 0;
#X connect 23 0 24 0;
#X connect 24 0 26 0;
#X connect 24 1 25 0;
#X connect 24 2 28 0;
#X connect 24 3 29 0;
#X connect 24 4 30 0;
#X connect 24 5 31 0;
#X connect 25 0 27 0;
#X connect 26 0 27 0;
#X connect 27 0 11 0;
#X connect 28 0 27 0;
#X connect 29 0 27 0;
#X connect 30 0 27 0;
#X connect 31 0 27 0;
#X connect 32 0 35 0;
#X connect 34 0 32 0;
#X connect 35 0 13 0;
